{"title":"Frosty.The.Snowman.DiVx","uid":4546960,"size":293794796,"categoryP":"video","categoryS":"movies","magnet":"?xt=urn:btih:44132698b24c8ae399bcd1f5e7386f65ed965157&amp;dn=Frosty.The.Snowman.DiVx&amp;tr=udp%3A%2F%2Ftracker.openbittorrent.com%3A80&amp;tr=udp%3A%2F%2Fopen.demonii.com%3A1337&amp;tr=udp%3A%2F%2Ftracker.coppersurfer.tk%3A6969&amp;tr=udp%3A%2F%2Fexodus.desync.com%3A6969","seeders":1,"leechers":0,"uploader":"circlensess","files":23,"time":1228163530,"description":"Frosty.The.Snowman.DiVx\n\ntitle:frosty the snowman\n\nimdb:http://www.imdb.com/title/tt0064349/\n\nyear: 1969\n\n\n\nsummary: A discarded silk tophat becomes the focus of a struggle between a washed-up stage magician and a group of schoolchildren after it magically brings a snowman to life. Realizing that newly-living Frosty will melt in spring unless he takes refuge in a colder climate, Frosty and a young girl who he befriends stow away on a freight train headed for the north pole. Little do they know that the magician is following them, and he wants his hat back. This animated short is based on the popular Christmas song of the same name\n\ntype:divx\naudio: english\nsfv included\nrar count: 20 x 14.3\n\nComplete name                    : Frosty The Snowman.divx\nFormat                         : AVI\nFormat/Info                      : Audio Video Interleave\nFile size                        : 280 MiB\nDuration                       : 29mn 19s\nOverall bit rate               : 1 336 Kbps\n\nVideo\nFormat                         : MPEG-4 Visual\nFormat settings, BVOP            : Yes\nFormat settings, QPel            : No\nFormat settings, GMC           : No warppoints\nFormat settings, Matrix          : Default\nCodec ID                       : DX50\nCodec ID/Hint                    : DivX 5\nDuration                       : 29mn 19s\nBit rate                       : 1 101 Kbps\nWidth                            : 656 pixels\nHeight                         : 480 pixels\nDisplay aspect ratio           : 4/3\nFrame rate                     : 29.970 fps\nResolution                     : 24 bits\nColorimetry                      : 4:2:0\nScan type                        : Progressive\nBits/(Pixel*Frame)             : 0.117\nStream size                      : 231 MiB (82%)\nTitle                            : Video\nWriting library                  : DivX 2521\n\nAudio\nFormat                         : AC-3\nFormat/Info                      : Audio Coding 3\nCodec ID                       : 2000\nDuration                       : 29mn 17s\nBit rate mode                    : Constant\nBit rate                       : 224 Kbps\nChannel(s)                     : 2 channels\nChannel positions                : L R\nSampling rate                    : 48.0 KHz\nStream size                      : 46.9 MiB (17%)\nAlignment                        : Split accross interleaves\nInterleave, duration           : 33 ms (1.00 video frame)\nInterleave, preload duration   : 500 ms\n\n","torrent":{"xt":"urn:btih:44132698b24c8ae399bcd1f5e7386f65ed965157","amp;dn":"Frosty.The.Snowman.DiVx","amp;tr":["udp%3A%2F%2Ftracker.openbittorrent.com%3A80","udp%3A%2F%2Fopen.demonii.com%3A1337","udp%3A%2F%2Ftracker.coppersurfer.tk%3A6969","udp%3A%2F%2Fexodus.desync.com%3A6969"],"infoHash":"44132698b24c8ae399bcd1f5e7386f65ed965157","infoHashBuffer":{"type":"Buffer","data":[68,19,38,152,178,76,138,227,153,188,209,245,231,56,111,101,237,150,81,87]},"announce":[],"urlList":[]}}